<svg height="496pt" viewBox="0 0 496 496" width="496pt" xmlns="http://www.w3.org/2000/svg" xmlns:xlink="http://www.w3.org/1999/xlink"><linearGradient id="a" gradientTransform="matrix(8 0 0 -8 -8 504)" gradientUnits="userSpaceOnUse" x1="32" x2="32" y1="1" y2="63"><stop offset="0" stop-color="#9f2fff"/><stop offset="1" stop-color="#0bb1d3"/></linearGradient><path d="m56 448h16v16h-16zm32 16h16v-16h-16zm32 0h16v-16h-16zm355.808594-98.601562 20.191406 4.050781v45.109375l-20.191406 4.050781c-1.519532 4.78125-3.441406 9.414063-5.738282 13.847656l11.425782 17.144531-31.894532 31.894532-17.136718-11.433594c-4.441406 2.304688-9.074219 4.226562-13.855469 5.746094l-4.050781 20.191406h-390.558594v-305.136719c-13.761719-3.574219-24-15.992187-24-30.863281v-25.601562l40-95.992188v-38.40625h320v38.398438l40 95.992187v25.601563c0 14.871093-10.238281 27.289062-24 30.863281v97.144531h38.558594l4.042968 20.191406c4.78125 1.511719 9.414063 3.441406 13.855469 5.746094l17.136719-11.433594 31.894531 31.894532-11.425781 17.144531c2.304688 4.441406 4.226562 9.074219 5.746094 13.855469zm-173.296875-30.992188 25.488281-25.484375v-118.058594c-2.574219.671875-5.222656 1.136719-8 1.136719-9.601562 0-18.128906-4.335938-24-11.054688-5.871094 6.71875-14.398438 11.054688-24 11.054688s-18.128906-4.335938-24-11.054688c-5.871094 6.71875-14.398438 11.054688-24 11.054688s-18.128906-4.335938-24-11.054688c-5.871094 6.71875-14.398438 11.054688-24 11.054688s-18.128906-4.335938-24-11.054688c-5.871094 6.71875-14.398438 11.054688-24 11.054688s-18.128906-4.335938-24-11.054688c-5.871094 6.71875-14.398438 11.054688-24 11.054688-2.777344 0-5.425781-.464844-8-1.136719v225.136719h16v-40.183594c0-17.808594 11.457031-33.199218 28.503906-38.320312l51.496094-15.449219v-14.367187c-9.792969-8.792969-16-21.503907-16-35.679688v-24c0-26.472656 21.527344-48 48-48s48 21.527344 48 48v24c0 14.167969-6.207031 26.878906-16 35.679688v14.367187l51.496094 15.449219c12.375 3.710937 21.734375 12.878906 25.976562 24.425781 1.289063-3.546875 2.734375-7.027344 4.464844-10.371094zm-38.511719 41.59375v40h31.214844l-7.214844-1.449219v-45.109375l6.742188-1.351562c-2.421876-7.226563-8.191407-12.976563-15.847657-15.273438l-52.613281-15.785156-26.28125 26.28125-26.28125-26.28125-52.621094 15.785156c-10.226562 3.070313-17.105468 12.3125-17.105468 22.992188v40.191406h32v-40h16v40h96v-40zm-32-104v-24c0-17.648438-14.351562-32-32-32s-32 14.351562-32 32v24c0 17.648438 14.351562 32 32 32s32-14.351562 32-32zm-48 45.199219v7.488281l16 16 16-16v-7.488281c-5.015625 1.785156-10.382812 2.800781-16 2.800781s-10.984375-1.023438-16-2.800781zm-130.664062-269.199219-33.328126 80h30.230469l26.664063-80zm269.761718 0 26.664063 80h30.230469l-33.328126-80zm12.902344 96h-32v16c0 8.824219 7.175781 16 16 16s16-7.175781 16-16zm-224 16c0 8.824219 7.175781 16 16 16s16-7.175781 16-16v-16h-32zm48 0c0 8.824219 7.175781 16 16 16s16-7.175781 16-16v-16h-32zm48 0c0 8.824219 7.175781 16 16 16s16-7.175781 16-16v-16h-32zm48 0c0 8.824219 7.175781 16 16 16s16-7.175781 16-16v-16h-32zm50.230469-112h-24.015625l19.800781 80h30.878906zm-57.535157 0 6.664063 80h30.394531l-20-80zm-40.695312 0v80h31.328125l-6.6875-80zm-16 0h-24.640625l-6.664063 80h31.304688zm-40.695312 0h-17.066407l-20 80h30.417969zm-33.550782 0h-23.992187l-26.664063 80h30.65625zm-53.753906 96v16c0 8.824219 7.175781 16 16 16s16-7.175781 16-16v-16zm280 164.902344 7.542969 5.035156c2.738281-1.425781 5.578125-2.648438 8.457031-3.769531v-119.304688c-6.320312-1.640625-11.832031-5.144531-16-9.917969zm40-148.902344v-16h-32v16c0 8.824219 7.175781 16 16 16s16-7.175781 16-16zm-328-144v16h288v-16zm-24 160c8.824219 0 16-7.175781 16-16v-16h-32v16c0 8.824219 7.175781 16 16 16zm8 304h292.921875l-30.410156-30.40625 11.425781-17.144531c-.082031-.144531-.136719-.304688-.210938-.457031h-257.726562v-251.054688c-4.167969 4.773438-9.679688 8.277344-16 9.917969zm326.238281 0-.839843-4.191406c-4.78125-1.511719-9.414063-3.441406-13.855469-5.746094l-14.894531 9.9375zm113.761719-97.449219-17.054688-3.40625-1.242187-4.886719c-1.703125-6.707031-4.351563-13.097656-7.863281-18.992187l-2.582032-4.328125 9.652344-14.488281-13.351562-13.351563-14.480469 9.644532-4.335937-2.574219c-5.902344-3.519531-12.292969-6.167969-19-7.871094l-4.878907-1.242187-3.421875-17.054688h-18.882812l-3.414063 17.054688-4.878906 1.242187c-6.707031 1.710937-13.097656 4.351563-19 7.871094l-4.335937 2.574219-14.480469-9.644532-13.351563 13.351563 9.65625 14.488281-2.585937 4.328125c-3.511719 5.894531-6.160157 12.285156-7.863281 18.992187l-1.242188 4.886719-17.054688 3.40625v18.890625l17.054688 3.40625 1.242188 4.886719c1.703124 6.707031 4.351562 13.097656 7.863281 18.992187l2.585937 4.328126-9.65625 14.488281 13.351563 13.351562 14.480469-9.648437 4.335937 2.578125c5.902344 3.519531 12.292969 6.167969 19 7.871093l4.878906 1.242188 3.414063 17.054688h18.882812l3.414063-17.054688 4.878906-1.242188c6.707031-1.710937 13.097656-4.351562 19-7.871093l4.335937-2.578125 14.480469 9.648437 13.351563-13.351562-9.65625-14.488281 2.585937-4.328126c3.511719-5.894531 6.160157-12.285156 7.863281-18.992187l1.242188-4.886719 17.054688-3.40625zm-88-46.550781c-11.664062 0-22.878906 3.59375-32.425781 10.390625l9.28125 13.035156c6.824219-4.859375 14.824219-7.425781 23.144531-7.425781 22.054688 0 40 17.945312 40 40 0 8.320312-2.566406 16.320312-7.425781 23.144531l13.035156 9.28125c6.796875-9.546875 10.390625-20.761719 10.390625-32.425781 0-30.871094-25.121094-56-56-56zm0 96c-22.054688 0-40-17.945312-40-40 0-8.320312 2.566406-16.320312 7.425781-23.144531l-13.035156-9.28125c-6.796875 9.546875-10.390625 20.761719-10.390625 32.425781 0 30.871094 25.121094 56 56 56 11.664062 0 22.878906-3.59375 32.425781-10.390625l-9.28125-13.035156c-6.824219 4.859375-14.824219 7.425781-23.144531 7.425781zm0 0" fill="url(#a)"/></svg>